<mxfile host="app.diagrams.net" modified="2023-08-07T03:51:06.930Z" agent="Mozilla/5.0 (Windows NT 10.0; Win64; x64) AppleWebKit/537.36 (KHTML, like Gecko) Chrome/115.0.0.0 Safari/537.36" etag="q1WfP4jI4Yij_8Hv5B0T" version="21.6.6" type="github">
  <diagram name="페이지-1" id="6rAaueRYFhpP-sxpDW1O">
    <mxGraphModel dx="1050" dy="542" grid="1" gridSize="10" guides="1" tooltips="1" connect="1" arrows="1" fold="1" page="1" pageScale="1" pageWidth="827" pageHeight="1169" math="0" shadow="0">
      <root>
        <mxCell id="0" />
        <mxCell id="1" parent="0" />
        <mxCell id="ejC2qAQG4S3XT-hwIrTF-6" style="edgeStyle=orthogonalEdgeStyle;rounded=0;orthogonalLoop=1;jettySize=auto;html=1;" edge="1" parent="1" source="ejC2qAQG4S3XT-hwIrTF-3" target="ejC2qAQG4S3XT-hwIrTF-5">
          <mxGeometry relative="1" as="geometry" />
        </mxCell>
        <mxCell id="ejC2qAQG4S3XT-hwIrTF-3" value="사용자" style="shape=umlActor;verticalLabelPosition=bottom;verticalAlign=top;html=1;outlineConnect=0;" vertex="1" parent="1">
          <mxGeometry x="400" y="250" width="30" height="60" as="geometry" />
        </mxCell>
        <mxCell id="ejC2qAQG4S3XT-hwIrTF-9" style="rounded=0;orthogonalLoop=1;jettySize=auto;html=1;exitX=0.5;exitY=1;exitDx=0;exitDy=0;" edge="1" parent="1">
          <mxGeometry relative="1" as="geometry">
            <mxPoint x="559.5" y="320" as="sourcePoint" />
            <mxPoint x="559.5" y="520" as="targetPoint" />
          </mxGeometry>
        </mxCell>
        <mxCell id="ejC2qAQG4S3XT-hwIrTF-27" value="shirtNo" style="edgeLabel;html=1;align=center;verticalAlign=middle;resizable=0;points=[];" vertex="1" connectable="0" parent="ejC2qAQG4S3XT-hwIrTF-9">
          <mxGeometry x="-0.082" y="3" relative="1" as="geometry">
            <mxPoint as="offset" />
          </mxGeometry>
        </mxCell>
        <mxCell id="ejC2qAQG4S3XT-hwIrTF-16" style="edgeStyle=orthogonalEdgeStyle;rounded=0;orthogonalLoop=1;jettySize=auto;html=1;exitX=0.25;exitY=1;exitDx=0;exitDy=0;" edge="1" parent="1" source="ejC2qAQG4S3XT-hwIrTF-5" target="ejC2qAQG4S3XT-hwIrTF-14">
          <mxGeometry relative="1" as="geometry" />
        </mxCell>
        <mxCell id="ejC2qAQG4S3XT-hwIrTF-5" value="목록&amp;nbsp;&lt;br&gt;/shirt/list" style="whiteSpace=wrap;html=1;aspect=fixed;" vertex="1" parent="1">
          <mxGeometry x="520" y="240" width="80" height="80" as="geometry" />
        </mxCell>
        <mxCell id="ejC2qAQG4S3XT-hwIrTF-18" value="" style="edgeStyle=orthogonalEdgeStyle;rounded=0;orthogonalLoop=1;jettySize=auto;html=1;" edge="1" parent="1" source="ejC2qAQG4S3XT-hwIrTF-7" target="ejC2qAQG4S3XT-hwIrTF-8">
          <mxGeometry relative="1" as="geometry" />
        </mxCell>
        <mxCell id="ejC2qAQG4S3XT-hwIrTF-28" value="shirtNo" style="edgeLabel;html=1;align=center;verticalAlign=middle;resizable=0;points=[];" vertex="1" connectable="0" parent="ejC2qAQG4S3XT-hwIrTF-18">
          <mxGeometry x="0.0267" y="4" relative="1" as="geometry">
            <mxPoint as="offset" />
          </mxGeometry>
        </mxCell>
        <mxCell id="ejC2qAQG4S3XT-hwIrTF-7" value="등록(post)&lt;br&gt;/shirt/add" style="whiteSpace=wrap;html=1;aspect=fixed;" vertex="1" parent="1">
          <mxGeometry x="380" y="520" width="80" height="80" as="geometry" />
        </mxCell>
        <mxCell id="ejC2qAQG4S3XT-hwIrTF-21" style="edgeStyle=orthogonalEdgeStyle;rounded=0;orthogonalLoop=1;jettySize=auto;html=1;exitX=0.75;exitY=0;exitDx=0;exitDy=0;entryX=0.5;entryY=1;entryDx=0;entryDy=0;" edge="1" parent="1" source="ejC2qAQG4S3XT-hwIrTF-8" target="ejC2qAQG4S3XT-hwIrTF-20">
          <mxGeometry relative="1" as="geometry" />
        </mxCell>
        <mxCell id="ejC2qAQG4S3XT-hwIrTF-29" value="shirtNo" style="edgeLabel;html=1;align=center;verticalAlign=middle;resizable=0;points=[];" vertex="1" connectable="0" parent="ejC2qAQG4S3XT-hwIrTF-21">
          <mxGeometry x="0.0552" y="-3" relative="1" as="geometry">
            <mxPoint as="offset" />
          </mxGeometry>
        </mxCell>
        <mxCell id="ejC2qAQG4S3XT-hwIrTF-22" style="edgeStyle=orthogonalEdgeStyle;rounded=0;orthogonalLoop=1;jettySize=auto;html=1;exitX=1;exitY=0.5;exitDx=0;exitDy=0;entryX=0;entryY=0.5;entryDx=0;entryDy=0;" edge="1" parent="1" source="ejC2qAQG4S3XT-hwIrTF-8" target="ejC2qAQG4S3XT-hwIrTF-19">
          <mxGeometry relative="1" as="geometry" />
        </mxCell>
        <mxCell id="ejC2qAQG4S3XT-hwIrTF-30" value="shirtNo" style="edgeLabel;html=1;align=center;verticalAlign=middle;resizable=0;points=[];" vertex="1" connectable="0" parent="ejC2qAQG4S3XT-hwIrTF-22">
          <mxGeometry x="-0.0057" y="-3" relative="1" as="geometry">
            <mxPoint as="offset" />
          </mxGeometry>
        </mxCell>
        <mxCell id="ejC2qAQG4S3XT-hwIrTF-8" value="상세&lt;br&gt;/shirt/detail" style="whiteSpace=wrap;html=1;aspect=fixed;" vertex="1" parent="1">
          <mxGeometry x="520" y="520" width="80" height="80" as="geometry" />
        </mxCell>
        <mxCell id="ejC2qAQG4S3XT-hwIrTF-17" style="edgeStyle=orthogonalEdgeStyle;rounded=0;orthogonalLoop=1;jettySize=auto;html=1;exitX=0.5;exitY=1;exitDx=0;exitDy=0;" edge="1" parent="1" source="ejC2qAQG4S3XT-hwIrTF-14" target="ejC2qAQG4S3XT-hwIrTF-7">
          <mxGeometry relative="1" as="geometry" />
        </mxCell>
        <mxCell id="ejC2qAQG4S3XT-hwIrTF-31" value="shirtDto" style="edgeLabel;html=1;align=center;verticalAlign=middle;resizable=0;points=[];" vertex="1" connectable="0" parent="ejC2qAQG4S3XT-hwIrTF-17">
          <mxGeometry x="-0.33" y="-4" relative="1" as="geometry">
            <mxPoint as="offset" />
          </mxGeometry>
        </mxCell>
        <mxCell id="ejC2qAQG4S3XT-hwIrTF-14" value="등록(get)&lt;br&gt;/shirt/add" style="whiteSpace=wrap;html=1;aspect=fixed;" vertex="1" parent="1">
          <mxGeometry x="380" y="360" width="80" height="80" as="geometry" />
        </mxCell>
        <mxCell id="ejC2qAQG4S3XT-hwIrTF-26" style="edgeStyle=orthogonalEdgeStyle;rounded=0;orthogonalLoop=1;jettySize=auto;html=1;exitX=0.5;exitY=1;exitDx=0;exitDy=0;entryX=0.5;entryY=0;entryDx=0;entryDy=0;" edge="1" parent="1" source="ejC2qAQG4S3XT-hwIrTF-19" target="ejC2qAQG4S3XT-hwIrTF-24">
          <mxGeometry relative="1" as="geometry" />
        </mxCell>
        <mxCell id="ejC2qAQG4S3XT-hwIrTF-32" value="shirtDto" style="edgeLabel;html=1;align=center;verticalAlign=middle;resizable=0;points=[];" vertex="1" connectable="0" parent="ejC2qAQG4S3XT-hwIrTF-26">
          <mxGeometry x="-0.11" y="1" relative="1" as="geometry">
            <mxPoint as="offset" />
          </mxGeometry>
        </mxCell>
        <mxCell id="ejC2qAQG4S3XT-hwIrTF-19" value="수정(get)&lt;br&gt;/shirt/edit" style="whiteSpace=wrap;html=1;aspect=fixed;" vertex="1" parent="1">
          <mxGeometry x="670" y="520" width="80" height="80" as="geometry" />
        </mxCell>
        <mxCell id="ejC2qAQG4S3XT-hwIrTF-23" style="edgeStyle=orthogonalEdgeStyle;rounded=0;orthogonalLoop=1;jettySize=auto;html=1;exitX=0.5;exitY=0;exitDx=0;exitDy=0;entryX=1;entryY=0.5;entryDx=0;entryDy=0;" edge="1" parent="1" source="ejC2qAQG4S3XT-hwIrTF-20" target="ejC2qAQG4S3XT-hwIrTF-5">
          <mxGeometry relative="1" as="geometry" />
        </mxCell>
        <mxCell id="ejC2qAQG4S3XT-hwIrTF-20" value="삭제&lt;br&gt;/shirt/delete" style="whiteSpace=wrap;html=1;aspect=fixed;" vertex="1" parent="1">
          <mxGeometry x="670" y="360" width="80" height="80" as="geometry" />
        </mxCell>
        <mxCell id="ejC2qAQG4S3XT-hwIrTF-25" style="edgeStyle=orthogonalEdgeStyle;rounded=0;orthogonalLoop=1;jettySize=auto;html=1;entryX=0.5;entryY=1;entryDx=0;entryDy=0;" edge="1" parent="1" source="ejC2qAQG4S3XT-hwIrTF-24" target="ejC2qAQG4S3XT-hwIrTF-8">
          <mxGeometry relative="1" as="geometry" />
        </mxCell>
        <mxCell id="ejC2qAQG4S3XT-hwIrTF-24" value="수정(post)&lt;br style=&quot;border-color: var(--border-color);&quot;&gt;/shirt/edit" style="whiteSpace=wrap;html=1;aspect=fixed;" vertex="1" parent="1">
          <mxGeometry x="670" y="640" width="80" height="80" as="geometry" />
        </mxCell>
      </root>
    </mxGraphModel>
  </diagram>
</mxfile>
